<?xml version="1.0" standalone="no"?>
<!DOCTYPE svg PUBLIC "-//W3C//DTD SVG 20010904//EN"
 "http://www.w3.org/TR/2001/REC-SVG-20010904/DTD/svg10.dtd">
<svg version="1.0" xmlns="http://www.w3.org/2000/svg"
 width="48.000000pt" height="48.000000pt" viewBox="0 0 48.000000 48.000000"
 preserveAspectRatio="xMidYMid meet">

<g transform="translate(0.000000,48.000000) scale(0.100000,-0.100000)"
fill="#000000" stroke="none">
<path d="M100 437 l-25 -13 -3 -183 c-3 -190 1 -211 38 -211 10 0 20 -5 22
-11 3 -9 9 -9 24 -1 13 7 25 7 38 0 13 -7 20 -7 25 0 4 6 45 12 91 14 l85 3 0
205 0 205 -135 3 c-94 1 -143 -2 -160 -11z m90 -47 c0 -5 -4 -10 -10 -10 -5 0
-10 5 -10 10 0 6 5 10 10 10 6 0 10 -4 10 -10z m10 -80 c0 -5 -7 -7 -15 -4 -8
4 -15 8 -15 10 0 2 7 4 15 4 8 0 15 -4 15 -10z m0 -70 c0 -5 -7 -10 -15 -10
-8 0 -15 5 -15 10 0 6 7 10 15 10 8 0 15 -4 15 -10z m0 -75 c0 -8 -7 -15 -15
-15 -8 0 -15 7 -15 15 0 8 7 15 15 15 8 0 15 -7 15 -15z m168 -82 c-5 -25
-148 -33 -148 -8 0 11 -11 15 -45 15 -34 0 -45 -4 -45 -16 0 -20 -24 -13 -28
9 -3 15 11 17 133 17 125 0 136 -2 133 -17z"/>
</g>
</svg>
